<svg xmlns="http://www.w3.org/2000/svg" width="1920" height="1080" viewBox="0 0 1920 1080"><path fill="#78a2b3" stroke="#fff" stroke-linecap="round" stroke-linejoin="round" stroke-width="12" d="M1176.2 333.6c2.2 24.1 4.6 48.6 7.4 73.3 1.1 13.6 2.6 27.4 4.3 41.5.6 4.9 1.2 9.4 1.7 13.6l-14.1 16.1a168.8 168.8 0 0 0-22.6 44.6q-23.4 75.4 42.6 151.8c-1.9 13.4-2.3 46.2 14 66.8a246.9 246.9 0 0 0 24.7 26.6l26.9-32.4q68.4 52.2 198.1 92.5 64.6 20.6 115.6 30.1c7.5 32.3 24.3 53.2 50.5 63 13.6 5.3 25.9 7 37 5.2-1.3-18.2-7.8-34.6-19.5-49.4l-17.1-16.1c12.9-2.5 23.4-7.4 31.4-14.5s11.5-14.3 13.3-22.4q-38.9-26.5-69.9-15.8c-10.3 3.8-18 9.2-23 16.2q-113.6-38.4-161-141.8-23.9-51.6-25.9-114.2t-58.1-98.6q-55.9-36.1-98.3-21.3l-16.3-33.7-17.1-33.2z"/></svg>